# xmcd
#
# Track frame offsets:
#  150
#  16455
#  36648
#  56687
#  72364
#  90589
#  110947
#  131160
#  143520
#  153473
#  166470
#  193835
#  213964
#  229627
#  248715
#  265096
#
# Disc length: 3759 seconds
#
# Revision: 0
# Processed by: cddbd v1.5.1PL2 Copyright (c) Steve Scherf et al.
# Submitted via: Collectorz.com_Music_Collector 6.9
#
DISCID=eb0ead10
DTITLE=The Flying Burrito Brothers - Honky Tonkin'
DYEAR=2002
DGENRE=
TTITLE0=Sons Of The Golden West
TTITLE1=Honky Tonkin
TTITLE2=Area 51
TTITLE3=Mama's Hungry Eyes
TTITLE4=Pioneer Zephyr Train
TTITLE5=When I Was A Cowboy
TTITLE6=Down At The Palomino
TTITLE7=Genuine Healer
TTITLE8=Pull This
TTITLE9=Never Be Anyone Else But You
TTITLE10=Honky Tonk Blues
TTITLE11=Up On Sycamore
TTITLE12=Locked Away
TTITLE13=Wheel Of Love
TTITLE14=Willin' (Live)
TTITLE15=You're Still On My Mind (Live)
EXTD=
EXTT0=
EXTT1=
EXTT2=
EXTT3=
EXTT4=
EXTT5=
EXTT6=
EXTT7=
EXTT8=
EXTT9=
EXTT10=
EXTT11=
EXTT12=
EXTT13=
EXTT14=
EXTT15=
PLAYORDER=
